<?xml version="1.0" encoding="UTF-8" standalone="no"?>
<svg
   width="416.45886pt"
   height="62pt"
   viewBox="0 0 416.45886 62"
   version="1.1"
   id="svg51"
   xmlns:xlink="http://www.w3.org/1999/xlink"
   xmlns="http://www.w3.org/2000/svg"
   xmlns:svg="http://www.w3.org/2000/svg">
  <defs
     id="defs24">
    <g
       id="g24">
      <g
         id="glyph-0-0">
        <path
           d="M 16.515625,-2.796875 V -70.78125 H 5.046875 v -2.796875 H 39.78125 c 7.675781,0 14.25,1.089844 19.71875,3.265625 5.46875,2.179688 10.03125,6.4375 13.6875,12.78125 3.664062,6.34375 5.5,13.230469 5.5,20.65625 0,7.867188 -2.015625,14.890625 -6.046875,21.078125 -4.023437,6.179687 -8.65625,10.355469 -13.90625,12.53125 C 53.484375,-1.085938 47.09375,0 39.5625,0 H 5.046875 v -2.796875 z m 13.0625,-67.984375 V -2.796875 H 39.125 c 5.007812,0 9.09375,-0.457031 12.25,-1.375 3.164062,-0.914063 5.78125,-2.910156 7.84375,-5.984375 2.070312,-3.070312 3.472656,-6.96875 4.203125,-11.6875 0.738281,-4.71875 1.109375,-10.878906 1.109375,-18.484375 0,-9.144531 -1.164062,-15.96875 -3.484375,-20.46875 -2.324219,-4.5 -5.167969,-7.285156 -8.53125,-8.359375 -3.367187,-1.082031 -7.757813,-1.625 -13.171875,-1.625 z m 0,0"
           id="path1" />
      </g>
      <g
         id="glyph-0-1">
        <path
           d="m 50.59375,-74.40625 0.328125,19.09375 H 48.34375 c -3.65625,-11.445312 -10.117188,-17.171875 -19.375,-17.171875 -5.117188,0 -9.09375,1.417969 -11.9375,4.25 -2.835938,2.835937 -4.25,5.773437 -4.25,8.8125 0,2.8125 1.175781,5.210937 3.53125,7.1875 2.363281,1.96875 6.671875,3.496094 12.921875,4.578125 6.257813,1.085938 11.023437,2.402344 14.296875,3.953125 3.28125,1.554687 6.046875,4.140625 8.296875,7.765625 2.25,3.617188 3.375,7.765625 3.375,12.453125 0,7.210937 -2.355469,13.210937 -7.0625,18 -4.699219,4.792969 -10.523437,7.1875 -17.46875,7.1875 -5.667969,0 -11.320313,-2.101563 -16.953125,-6.3125 L 8.5625,0 H 6.640625 V -20.578125 H 9 c 2.15625,6.480469 5.171875,11.351563 9.046875,14.609375 3.882813,3.25 8.128906,4.875 12.734375,4.875 4.570312,0 8.769531,-1.507812 12.59375,-4.53125 3.820312,-3.019531 5.734375,-6.832031 5.734375,-11.4375 0,-3.875 -1.328125,-7.140625 -3.984375,-9.796875 -2.648438,-2.65625 -6.945312,-4.484375 -12.890625,-5.484375 -5.949219,-1.007812 -10.515625,-2.179688 -13.703125,-3.515625 -3.179688,-1.332031 -5.902344,-3.65625 -8.171875,-6.96875 -2.261719,-3.3125 -3.390625,-6.976563 -3.390625,-11 0,-5.5625 1.972656,-10.523437 5.921875,-14.890625 3.957031,-4.375 9.316406,-6.5625 16.078125,-6.5625 5.675781,0 10.960938,1.792969 15.859375,5.375 1.351563,-1.28125 2.523437,-2.78125 3.515625,-4.5 z m 0,0"
           id="path2" />
      </g>
      <g
         id="glyph-0-2">
        <path
           d="m 47.078125,-22.9375 h -23.375 L 16.1875,-2.796875 H 29.796875 V 0 H 3.125 V -2.796875 H 13.28125 L 40.109375,-75.28125 H 41.8125 l 25.734375,72.484375 h 9.875 V 0 h -35.0625 v -2.796875 h 11.90625 z M 24.75,-25.734375 h 21.34375 l -10.375,-29.46875 H 35.5 Z m 0,0"
           id="path3" />
      </g>
      <g
         id="glyph-0-3">
        <path
           d="m 62.390625,-48.890625 13.328125,32.375 20.140625,-54.265625 H 85.15625 v -2.796875 h 21.40625 v 2.796875 H 98.984375 L 71.828125,1.703125 H 69.90625 L 55.859375,-32.375 42.140625,1.703125 h -2.03125 L 10.59375,-70.78125 H 2.359375 v -2.796875 H 79.125 v 2.796875 H 71.21875 Z M 53.5,-70.78125 l 7.40625,18.046875 7.296875,-18.046875 z m -7.296875,54.921875 8.0625,-20.296875 -14.15625,-34.625 H 23.8125 Z m 0,0"
           id="path4" />
      </g>
      <g
         id="glyph-1-0">
        <path
           d="m 12.609375,-2.140625 v -51.9375 h -8.75 v -2.125 h 26.53125 c 5.863281,0 10.882813,0.835937 15.0625,2.5 4.175781,1.65625 7.660156,4.914063 10.453125,9.765625 2.800781,4.84375 4.203125,10.101562 4.203125,15.765625 0,6.011719 -1.539063,11.382813 -4.609375,16.109375 -3.074219,4.71875 -6.617188,7.914062 -10.625,9.578125 C 40.863281,-0.828125 35.976562,0 30.21875,0 H 3.859375 v -2.140625 z m 9.984375,-51.9375 v 51.9375 h 7.296875 c 3.820313,0 6.941406,-0.347656 9.359375,-1.046875 2.414062,-0.695312 4.410156,-2.21875 5.984375,-4.5625 1.582031,-2.351562 2.65625,-5.332031 3.21875,-8.9375 0.5625,-3.601562 0.84375,-8.3125 0.84375,-14.125 0,-6.976562 -0.890625,-12.1875 -2.671875,-15.625 -1.773438,-3.4375 -3.945312,-5.566406 -6.515625,-6.390625 -2.574219,-0.832031 -5.929687,-1.25 -10.0625,-1.25 z m 0,0"
           id="path5" />
      </g>
      <g
         id="glyph-1-1">
        <path
           d="m 38.640625,-56.84375 0.25,14.59375 h -1.96875 C 34.128906,-51 29.195312,-55.375 22.125,-55.375 c -3.90625,0 -6.945312,1.085938 -9.109375,3.25 -2.167969,2.167969 -3.25,4.414062 -3.25,6.734375 0,2.148437 0.898437,3.976563 2.703125,5.484375 1.800781,1.511719 5.09375,2.679688 9.875,3.5 4.78125,0.824219 8.421875,1.828125 10.921875,3.015625 2.5,1.1875 4.609375,3.167969 6.328125,5.9375 1.71875,2.761719 2.578125,5.933594 2.578125,9.515625 0,5.5 -1.796875,10.085938 -5.390625,13.75 -3.59375,3.65625 -8.042969,5.484375 -13.34375,5.484375 -4.335938,0 -8.652344,-1.601563 -12.953125,-4.8125 L 6.53125,0 H 5.078125 V -15.71875 H 6.875 c 1.644531,4.949219 3.945312,8.667969 6.90625,11.15625 2.96875,2.480469 6.210938,3.71875 9.734375,3.71875 3.488281,0 6.691406,-1.148438 9.609375,-3.453125 2.925781,-2.300781 4.390625,-5.210937 4.390625,-8.734375 0,-2.96875 -1.015625,-5.460938 -3.046875,-7.484375 -2.023438,-2.03125 -5.304688,-3.425781 -9.84375,-4.1875 -4.542969,-0.769531 -8.03125,-1.664063 -10.46875,-2.6875 C 11.726562,-28.410156 9.648438,-30.1875 7.921875,-32.71875 6.191406,-35.25 5.328125,-38.050781 5.328125,-41.125 c 0,-4.238281 1.503906,-8.03125 4.515625,-11.375 3.019531,-3.34375 7.113281,-5.015625 12.28125,-5.015625 4.332031,0 8.375,1.371094 12.125,4.109375 1.03125,-0.976562 1.921875,-2.125 2.671875,-3.4375 z m 0,0"
           id="path6" />
      </g>
      <g
         id="glyph-1-2">
        <path
           d="M 35.96875,-17.515625 H 18.109375 l -5.75,15.375 h 10.40625 V 0 h -20.375 v -2.140625 h 7.75 l 20.5,-55.375 H 31.9375 l 19.65625,55.375 h 7.546875 V 0 h -26.78125 v -2.140625 h 9.09375 z M 18.90625,-19.65625 H 35.203125 L 27.28125,-42.171875 H 27.125 Z m 0,0"
           id="path7" />
      </g>
      <g
         id="glyph-1-3" />
      <g
         id="glyph-1-4">
        <path
           d="m 47.65625,-37.34375 10.1875,24.734375 15.390625,-41.46875 h -8.1875 v -2.125 H 81.40625 v 2.125 H 75.609375 L 54.875,1.296875 H 53.40625 L 42.671875,-24.734375 32.1875,1.296875 H 30.640625 L 8.09375,-54.078125 H 1.796875 v -2.125 H 60.4375 v 2.125 h -6.03125 z m -6.78125,-16.734375 5.65625,13.796875 5.5625,-13.796875 z m -5.578125,41.96875 6.15625,-15.515625 -10.8125,-26.453125 H 18.1875 Z m 0,0"
           id="path8" />
      </g>
      <g
         id="glyph-1-5">
        <path
           d="m 30.390625,1.296875 c -7.273437,0 -13.445313,-3.039063 -18.515625,-9.125 C 6.8125,-13.921875 4.28125,-20.4375 4.28125,-27.375 c 0,-8.320312 2.660156,-15.425781 7.984375,-21.3125 5.320313,-5.882812 11.503906,-8.828125 18.546875,-8.828125 6.625,0 12.5625,2.996094 17.8125,8.984375 5.25,5.980469 7.875,12.765625 7.875,20.359375 0,7.824219 -2.636719,14.695313 -7.90625,20.609375 -5.261719,5.90625 -11.328125,8.859375 -18.203125,8.859375 z M 30.5625,-55.375 c -3.074219,0 -5.835938,0.710938 -8.28125,2.125 -2.449219,1.40625 -4.117188,3.859375 -5,7.359375 -0.875,3.492187 -1.3125,9.578125 -1.3125,18.265625 0,6.011719 0.25,10.808594 0.75,14.390625 0.507812,3.574219 1.789062,6.53125 3.84375,8.875 2.050781,2.34375 5.269531,3.515625 9.65625,3.515625 2.6875,0 5.375,-0.707031 8.0625,-2.125 2.695312,-1.425781 4.457031,-4.226562 5.28125,-8.40625 0.832031,-4.175781 1.25,-10.597656 1.25,-19.265625 0,-7.851563 -0.511719,-13.273437 -1.53125,-16.265625 -1.023438,-2.988281 -2.65625,-5.144531 -4.90625,-6.46875 -2.25,-1.332031 -4.855469,-2 -7.8125,-2 z m 0,0"
           id="path9" />
      </g>
      <g
         id="glyph-1-6">
        <path
           d="m 14.5,-2.140625 v -51.9375 H 5.65625 v -2.125 h 30.8125 c 4.019531,0 7.320312,0.351563 9.90625,1.046875 2.582031,0.699219 4.8125,2.148438 6.6875,4.34375 1.875,2.1875 2.8125,4.710938 2.8125,7.5625 0,3.542969 -1.371094,6.417969 -4.109375,8.625 -2.742187,2.210938 -7.382813,3.871094 -13.921875,4.984375 v 0.21875 c 4.695312,0.917969 8.546875,2.703125 11.546875,5.359375 3.007813,2.65625 4.515625,7.15625 4.515625,13.5 0,3.636719 0.421875,5.964844 1.265625,6.984375 0.851563,1.023437 2.035156,1.53125 3.546875,1.53125 0.976562,0 2.15625,-0.195313 3.53125,-0.59375 V -0.59375 C 59.8125,0.25 57.460938,0.671875 55.203125,0.671875 c -4.617187,0 -7.871094,-1.285156 -9.765625,-3.859375 -1.898438,-2.570312 -2.820312,-5.085938 -2.765625,-7.546875 l 0.171875,-7.125 c 0,-2.488281 -0.792969,-4.941406 -2.375,-7.359375 -1.585938,-2.414062 -5.167969,-3.625 -10.75,-3.625 h -5.234375 v 26.703125 h 8.84375 V 0 H 5.65625 v -2.140625 z m 9.984375,-51.9375 V -30.8125 h 7.546875 c 3.238281,0 5.707031,-0.210938 7.40625,-0.640625 1.707031,-0.4375 3.070312,-1.566406 4.09375,-3.390625 1.019531,-1.832031 1.53125,-4.75 1.53125,-8.75 0,-3.269531 -0.523438,-5.660156 -1.5625,-7.171875 -1.03125,-1.507813 -2.28125,-2.4375 -3.75,-2.78125 -1.460938,-0.351563 -3.375,-0.53125 -5.75,-0.53125 z m 0,0"
           id="path10" />
      </g>
      <g
         id="glyph-1-7">
        <path
           d="M 38.5625,-32.03125 60.28125,-2.140625 H 67.3125 V 0 h -28.25 v -2.140625 h 9.609375 l -16.140625,-22.25 -17.609375,22.25 H 25.90625 V 0 H 3.6875 v -2.140625 h 8.515625 l 18.859375,-24.0625 -20.25,-27.875 h -7.125 v -2.125 h 28 v 2.125 H 22.421875 L 37.09375,-34 53.0625,-54.078125 h -9.640625 v -2.125 h 20.375 v 2.125 H 55.875 Z m 0,0"
           id="path11" />
      </g>
      <g
         id="glyph-2-0">
        <path
           d="M 19.375,-7.21875 C 19.09375,-4.8125 18.203125,-2.953125 16.703125,-1.640625 15.210938,-0.335938 13.226562,0.3125 10.75,0.3125 8.0625,0.3125 5.90625,-0.648438 4.28125,-2.578125 2.664062,-4.503906 1.859375,-7.082031 1.859375,-10.3125 V -12.5 c 0,-2.113281 0.375,-3.972656 1.125,-5.578125 0.757813,-1.601563 1.832031,-2.832031 3.21875,-3.6875 1.382813,-0.863281 2.988281,-1.296875 4.8125,-1.296875 2.414063,0 4.351563,0.679688 5.8125,2.03125 1.457031,1.34375 2.304687,3.210938 2.546875,5.59375 h -3.015625 c -0.261719,-1.8125 -0.828125,-3.125 -1.703125,-3.9375 -0.867188,-0.8125 -2.078125,-1.21875 -3.640625,-1.21875 -1.917969,0 -3.421875,0.710938 -4.515625,2.125 -1.085938,1.417969 -1.625,3.433594 -1.625,6.046875 v 2.203125 c 0,2.46875 0.515625,4.433594 1.546875,5.890625 1.03125,1.460937 2.472656,2.1875 4.328125,2.1875 1.664062,0 2.941406,-0.375 3.828125,-1.125 0.894531,-0.757813 1.488281,-2.078125 1.78125,-3.953125 z m 0,0"
           id="path12" />
      </g>
      <g
         id="glyph-2-1">
        <path
           d="M 15.203125,-5.9375 H 5.671875 L 3.53125,0 H 0.4375 L 9.125,-22.75 H 11.75 L 20.453125,0 H 17.375 Z m -8.625,-2.46875 H 14.3125 l -3.875,-10.640625 z m 0,0"
           id="path13" />
      </g>
      <g
         id="glyph-2-2">
        <path
           d="M 10.984375,-9.203125 H 5.640625 V 0 H 2.625 v -22.75 h 7.53125 c 2.5625,0 4.53125,0.585938 5.90625,1.75 1.382812,1.167969 2.078125,2.867188 2.078125,5.09375 0,1.417969 -0.386719,2.652344 -1.15625,3.703125 -0.761719,1.054687 -1.824219,1.839844 -3.1875,2.359375 l 5.34375,9.65625 V 0 h -3.21875 z M 5.640625,-11.65625 H 10.25 c 1.488281,0 2.671875,-0.382812 3.546875,-1.15625 0.882813,-0.769531 1.328125,-1.800781 1.328125,-3.09375 0,-1.40625 -0.421875,-2.484375 -1.265625,-3.234375 -0.835937,-0.75 -2.042969,-1.128906 -3.625,-1.140625 h -4.59375 z m 0,0"
           id="path14" />
      </g>
      <g
         id="glyph-2-3">
        <path
           d="M 5.640625,-8.90625 V 0 h -3 v -22.75 h 8.390625 c 2.488281,0 4.4375,0.636719 5.84375,1.90625 1.414062,1.273438 2.125,2.953125 2.125,5.046875 0,2.210937 -0.695312,3.914063 -2.078125,5.109375 C 15.546875,-9.5 13.570312,-8.90625 11,-8.90625 Z m 0,-2.453125 h 5.390625 c 1.601562,0 2.832031,-0.375 3.6875,-1.125 C 15.570312,-13.242188 16,-14.335938 16,-15.765625 c 0,-1.351563 -0.429688,-2.4375 -1.28125,-3.25 -0.855469,-0.8125 -2.027344,-1.234375 -3.515625,-1.265625 h -5.5625 z m 0,0"
           id="path15" />
      </g>
      <g
         id="glyph-2-4">
        <path
           d="M 15.5,-10.515625 H 5.640625 v 8.0625 H 17.09375 V 0 H 2.640625 V -22.75 H 16.9375 v 2.46875 H 5.640625 v 7.3125 H 15.5 Z m 0,0"
           id="path16" />
      </g>
      <g
         id="glyph-2-5">
        <path
           d="M 20.125,0 H 17.109375 L 5.65625,-17.53125 V 0 H 2.640625 V -22.75 H 5.65625 L 17.140625,-5.140625 V -22.75 H 20.125 Z m 0,0"
           id="path17" />
      </g>
      <g
         id="glyph-2-6">
        <path
           d="m 18.359375,-20.28125 h -7.3125 V 0 H 8.0625 V -20.28125 H 0.765625 V -22.75 h 17.59375 z m 0,0"
           id="path18" />
      </g>
      <g
         id="glyph-2-7">
        <path
           d="M 9.578125,-11.328125 15.515625,-22.75 h 3.40625 l -7.84375,14.265625 V 0 h -3 V -8.484375 L 0.234375,-22.75 h 3.4375 z m 0,0"
           id="path19" />
      </g>
      <g
         id="glyph-2-8" />
      <g
         id="glyph-2-9">
        <path
           d="m 9.34375,-10.140625 c -2.574219,-0.738281 -4.449219,-1.644531 -5.625,-2.71875 -1.167969,-1.082031 -1.75,-2.414063 -1.75,-4 0,-1.789063 0.710938,-3.269531 2.140625,-4.4375 1.4375,-1.175781 3.300781,-1.765625 5.59375,-1.765625 1.5625,0 2.953125,0.304688 4.171875,0.90625 1.226562,0.605469 2.175781,1.4375 2.84375,2.5 0.675781,1.0625 1.015625,2.226562 1.015625,3.484375 H 14.71875 c 0,-1.375 -0.4375,-2.453125 -1.3125,-3.234375 -0.875,-0.789062 -2.109375,-1.1875 -3.703125,-1.1875 -1.480469,0 -2.636719,0.328125 -3.46875,0.984375 C 5.410156,-18.960938 5,-18.0625 5,-16.90625 c 0,0.929688 0.390625,1.714844 1.171875,2.359375 0.789063,0.636719 2.128906,1.21875 4.015625,1.75 1.894531,0.53125 3.375,1.121094 4.4375,1.765625 1.070312,0.636719 1.863281,1.382812 2.375,2.234375 0.519531,0.855469 0.78125,1.859375 0.78125,3.015625 0,1.84375 -0.71875,3.324219 -2.15625,4.4375 -1.4375,1.105469 -3.359375,1.65625 -5.765625,1.65625 -1.5625,0 -3.023437,-0.296875 -4.375,-0.890625 C 4.128906,-1.179688 3.082031,-2.003906 2.34375,-3.046875 1.613281,-4.085938 1.25,-5.269531 1.25,-6.59375 h 3.015625 c 0,1.375 0.503906,2.464844 1.515625,3.265625 1.019531,0.792969 2.378906,1.1875 4.078125,1.1875 1.582031,0 2.796875,-0.320313 3.640625,-0.96875 0.84375,-0.644531 1.265625,-1.523437 1.265625,-2.640625 0,-1.113281 -0.390625,-1.972656 -1.171875,-2.578125 -0.78125,-0.613281 -2.199219,-1.21875 -4.25,-1.8125 z m 0,0"
           id="path20" />
      </g>
      <g
         id="glyph-2-10">
        <path
           d="m 20.140625,-10.640625 c 0,2.230469 -0.375,4.179687 -1.125,5.84375 -0.75,1.65625 -1.8125,2.921875 -3.1875,3.796875 -1.375,0.875 -2.980469,1.3125 -4.8125,1.3125 C 9.222656,0.3125 7.632812,-0.125 6.25,-1 4.863281,-1.882812 3.785156,-3.140625 3.015625,-4.765625 2.253906,-6.398438 1.863281,-8.289062 1.84375,-10.4375 v -1.640625 c 0,-2.1875 0.378906,-4.117187 1.140625,-5.796875 0.757813,-1.675781 1.832031,-2.957031 3.21875,-3.84375 1.394531,-0.894531 2.988281,-1.34375 4.78125,-1.34375 1.820313,0 3.425781,0.445312 4.8125,1.328125 1.394531,0.875 2.46875,2.152344 3.21875,3.828125 0.75,1.667969 1.125,3.609375 1.125,5.828125 z m -2.984375,-1.46875 c 0,-2.695313 -0.542969,-4.765625 -1.625,-6.203125 -1.085938,-1.445312 -2.601562,-2.171875 -4.546875,-2.171875 -1.898437,0 -3.390625,0.726563 -4.484375,2.171875 -1.085938,1.4375 -1.640625,3.4375 -1.671875,6 v 1.671875 c 0,2.617187 0.546875,4.671875 1.640625,6.171875 1.101562,1.492188 2.617188,2.234375 4.546875,2.234375 1.9375,0 3.4375,-0.703125 4.5,-2.109375 1.0625,-1.414062 1.609375,-3.441406 1.640625,-6.078125 z m 0,0"
           id="path21" />
      </g>
      <g
         id="glyph-2-11">
        <path
           d="M 5.65625,-2.453125 H 16.4375 V 0 H 2.640625 V -22.75 H 5.65625 Z m 0,0"
           id="path22" />
      </g>
      <g
         id="glyph-2-12">
        <path
           d="m 18.65625,-22.75 v 15.46875 c -0.01172,2.148438 -0.6875,3.902344 -2.03125,5.265625 -1.335938,1.367187 -3.148438,2.128906 -5.4375,2.296875 L 10.390625,0.3125 C 7.898438,0.3125 5.914062,-0.359375 4.4375,-1.703125 2.957031,-3.046875 2.207031,-4.894531 2.1875,-7.25 v -15.5 h 2.96875 v 15.40625 c 0,1.648438 0.453125,2.929688 1.359375,3.84375 0.90625,0.90625 2.195313,1.359375 3.875,1.359375 1.695313,0 2.992187,-0.453125 3.890625,-1.359375 0.90625,-0.90625 1.359375,-2.179688 1.359375,-3.828125 V -22.75 Z m 0,0"
           id="path23" />
      </g>
      <g
         id="glyph-2-13">
        <path
           d="m 5.859375,0 h -3 v -22.75 h 3 z m 0,0"
           id="path24" />
      </g>
    </g>
  </defs>
  <g
     fill="#c9972d"
     fill-opacity="1"
     id="g28"
     transform="translate(-197.50537,-686.79889)">
    <use
       xlink:href="#glyph-1-0"
       x="193.646"
       y="744.31451"
       id="use24" />
    <use
       xlink:href="#glyph-1-1"
       x="252.45168"
       y="744.31451"
       id="use25" />
    <use
       xlink:href="#glyph-1-2"
       x="292.54254"
       y="744.31451"
       id="use26" />
    <use
       xlink:href="#glyph-1-3"
       x="346.88416"
       y="744.31451"
       id="use27" />
    <use
       xlink:href="#glyph-1-4"
       x="361.47824"
       y="744.31451"
       id="use28" />
  </g>
  <g
     fill="#c9972d"
     fill-opacity="1"
     id="g31"
     transform="translate(-197.50537,-686.79889)">
    <use
       xlink:href="#glyph-1-5"
       x="433.50449"
       y="744.31451"
       id="use29" />
    <use
       xlink:href="#glyph-1-6"
       x="487.84607"
       y="744.31451"
       id="use30" />
    <use
       xlink:href="#glyph-1-7"
       x="546.65173"
       y="744.31451"
       id="use31" />
  </g>

</svg>
